<svg width="32" height="32" viewBox="0 0 32 32" fill="none" xmlns="http://www.w3.org/2000/svg">
<path d="M9.81342 13.16C9.58675 12.9867 9.33342 12.9067 9.12008 12.9067H8.08008V19.12H9.12008C9.33342 19.12 9.58675 19.04 9.81342 18.8667C10.0534 18.6667 10.1601 18.4267 10.1601 18.08V13.9333C10.1601 13.5867 10.0534 13.3333 9.81342 13.16ZM26.7201 2.66666H5.28008C4.58698 2.66666 3.92227 2.94199 3.43218 3.43208C2.94208 3.92218 2.66675 4.58689 2.66675 5.27999V26.72C2.66675 28.1733 3.84008 29.3333 5.28008 29.3333H26.7201C27.4132 29.3333 28.0779 29.058 28.568 28.5679C29.0581 28.0778 29.3334 27.4131 29.3334 26.72V5.27999C29.3334 3.82666 28.1601 2.66666 26.7201 2.66666ZM11.8401 18.0933C11.8401 19.2133 11.1601 20.9067 8.97342 20.9067H6.20008V11.0533H9.02675C11.1334 11.0533 11.8401 12.7467 11.8401 13.8667V18.0933ZM17.8401 12.8133H14.6667V15.1067H16.6001V16.8667H14.6667V19.1467H17.8401V20.9067H14.1334C13.4668 20.9333 12.9201 20.4 12.9067 19.7333V12.2933C12.8934 11.6267 13.4134 11.08 14.0801 11.0667H17.8401V12.8133ZM24.0001 19.68C23.2268 21.5067 21.8134 21.1467 21.1868 19.68L18.8934 11.0667H20.8267L22.6001 17.8267L24.3601 11.0667H26.2934L24.0001 19.68Z" fill="#D45D79"/>
</svg>
