<svg width="32" height="32" viewBox="0 0 32 32" fill="none" xmlns="http://www.w3.org/2000/svg">
<path d="M10.4001 2.66666H21.6001C25.8668 2.66666 29.3334 6.13332 29.3334 10.4V21.6C29.3334 23.651 28.5187 25.618 27.0684 27.0683C25.6181 28.5186 23.6511 29.3333 21.6001 29.3333H10.4001C6.13342 29.3333 2.66675 25.8667 2.66675 21.6V10.4C2.66675 8.34898 3.48151 6.38198 4.93179 4.9317C6.38207 3.48142 8.34907 2.66666 10.4001 2.66666ZM10.1334 5.33332C8.86038 5.33332 7.63948 5.83904 6.7393 6.73921C5.83913 7.63939 5.33342 8.86028 5.33342 10.1333V21.8667C5.33342 24.52 7.48008 26.6667 10.1334 26.6667H21.8668C23.1398 26.6667 24.3607 26.1609 25.2609 25.2608C26.161 24.3606 26.6668 23.1397 26.6668 21.8667V10.1333C26.6668 7.47999 24.5201 5.33332 21.8668 5.33332H10.1334ZM23.0001 7.33332C23.4421 7.33332 23.866 7.50892 24.1786 7.82148C24.4912 8.13404 24.6667 8.55796 24.6667 8.99999C24.6667 9.44202 24.4912 9.86594 24.1786 10.1785C23.866 10.4911 23.4421 10.6667 23.0001 10.6667C22.5581 10.6667 22.1341 10.4911 21.8216 10.1785C21.509 9.86594 21.3334 9.44202 21.3334 8.99999C21.3334 8.55796 21.509 8.13404 21.8216 7.82148C22.1341 7.50892 22.5581 7.33332 23.0001 7.33332ZM16.0001 9.33332C17.7682 9.33332 19.4639 10.0357 20.7141 11.2859C21.9644 12.5362 22.6667 14.2319 22.6667 16C22.6667 17.7681 21.9644 19.4638 20.7141 20.714C19.4639 21.9643 17.7682 22.6667 16.0001 22.6667C14.232 22.6667 12.5363 21.9643 11.286 20.714C10.0358 19.4638 9.33342 17.7681 9.33342 16C9.33342 14.2319 10.0358 12.5362 11.286 11.2859C12.5363 10.0357 14.232 9.33332 16.0001 9.33332ZM16.0001 12C14.9392 12 13.9218 12.4214 13.1717 13.1716C12.4215 13.9217 12.0001 14.9391 12.0001 16C12.0001 17.0609 12.4215 18.0783 13.1717 18.8284C13.9218 19.5786 14.9392 20 16.0001 20C17.0609 20 18.0784 19.5786 18.8285 18.8284C19.5787 18.0783 20.0001 17.0609 20.0001 16C20.0001 14.9391 19.5787 13.9217 18.8285 13.1716C18.0784 12.4214 17.0609 12 16.0001 12Z" fill="#D45D79"/>
</svg>
