<svg width="120" height="24" viewBox="0 0 120 24" fill="#c13355" xmlns="http://www.w3.org/2000/svg">
<path d="M117 21H113V14.25C113 13.19 111.81 12.31 110.75 12.31C109.69 12.31 109 13.19 109 14.25V21H105V9H109V11C109.66 9.93 111.36 9.24 112.5 9.24C115 9.24 117 11.28 117 13.75V21ZM103 21H99V9H103V21ZM101 3C101.53 3 102.039 3.21071 102.414 3.58579C102.789 3.96086 103 4.46957 103 5C103 5.53043 102.789 6.03914 102.414 6.41421C102.039 6.78929 101.53 7 101 7C100.47 7 99.9609 6.78929 99.5858 6.41421C99.2107 6.03914 99 5.53043 99 5C99 4.46957 99.2107 3.96086 99.5858 3.58579C99.9609 3.21071 100.47 3 101 3V3Z" />
<path d="M79.8 2H88.2C91.4 2 94 4.6 94 7.8V16.2C94 17.7383 93.3889 19.2135 92.3012 20.3012C91.2135 21.3889 89.7383 22 88.2 22H79.8C76.6 22 74 19.4 74 16.2V7.8C74 6.26175 74.6111 4.78649 75.6988 3.69878C76.7865 2.61107 78.2617 2 79.8 2V2ZM79.6 4C78.6452 4 77.7295 4.37929 77.0544 5.05442C76.3793 5.72955 76 6.64522 76 7.6V16.4C76 18.39 77.61 20 79.6 20H88.4C89.3548 20 90.2705 19.6207 90.9456 18.9456C91.6207 18.2705 92 17.3548 92 16.4V7.6C92 5.61 90.39 4 88.4 4H79.6ZM89.25 5.5C89.5815 5.5 89.8995 5.6317 90.1339 5.86612C90.3683 6.10054 90.5 6.41848 90.5 6.75C90.5 7.08152 90.3683 7.39946 90.1339 7.63388C89.8995 7.8683 89.5815 8 89.25 8C88.9185 8 88.6005 7.8683 88.3661 7.63388C88.1317 7.39946 88 7.08152 88 6.75C88 6.41848 88.1317 6.10054 88.3661 5.86612C88.6005 5.6317 88.9185 5.5 89.25 5.5ZM84 7C85.3261 7 86.5979 7.52678 87.5355 8.46447C88.4732 9.40215 89 10.6739 89 12C89 13.3261 88.4732 14.5979 87.5355 15.5355C86.5979 16.4732 85.3261 17 84 17C82.6739 17 81.4021 16.4732 80.4645 15.5355C79.5268 14.5979 79 13.3261 79 12C79 10.6739 79.5268 9.40215 80.4645 8.46447C81.4021 7.52678 82.6739 7 84 7V7ZM84 9C83.2044 9 82.4413 9.31607 81.8787 9.87868C81.3161 10.4413 81 11.2044 81 12C81 12.7957 81.3161 13.5587 81.8787 14.1213C82.4413 14.6839 83.2044 15 84 15C84.7957 15 85.5587 14.6839 86.1213 14.1213C86.6839 13.5587 87 12.7957 87 12C87 11.2044 86.6839 10.4413 86.1213 9.87868C85.5587 9.31607 84.7957 9 84 9Z" />
<path d="M55.36 9.87C55.19 9.74 55 9.68 54.84 9.68H54.06V14.34H54.84C55 14.34 55.19 14.28 55.36 14.15C55.54 14 55.62 13.82 55.62 13.56V10.45C55.62 10.19 55.54 10 55.36 9.87ZM68.04 2H51.96C51.4402 2 50.9416 2.2065 50.5741 2.57407C50.2065 2.94164 50 3.44018 50 3.96V20.04C50 21.13 50.88 22 51.96 22H68.04C68.5598 22 69.0584 21.7935 69.4259 21.4259C69.7935 21.0584 70 20.5598 70 20.04V3.96C70 2.87 69.12 2 68.04 2ZM56.88 13.57C56.88 14.41 56.37 15.68 54.73 15.68H52.65V8.29H54.77C56.35 8.29 56.88 9.56 56.88 10.4V13.57ZM61.38 9.61H59V11.33H60.45V12.65H59V14.36H61.38V15.68H58.6C58.1 15.7 57.69 15.3 57.68 14.8V9.22C57.67 8.72 58.06 8.31 58.56 8.3H61.38V9.61ZM66 14.76C65.42 16.13 64.36 15.86 63.89 14.76L62.17 8.3H63.62L64.95 13.37L66.27 8.3H67.72L66 14.76Z" />
<path d="M46.46 6C45.69 6.35 44.86 6.58 44 6.69C44.88 6.16 45.56 5.32 45.88 4.31C45.05 4.81 44.13 5.16 43.16 5.36C42.37 4.5 41.26 4 40 4C37.65 4 35.73 5.92 35.73 8.29C35.73 8.63 35.77 8.96 35.84 9.27C32.28 9.09 29.11 7.38 27 4.79C26.63 5.42 26.42 6.16 26.42 6.94C26.42 8.43 27.17 9.75 28.33 10.5C27.62 10.5 26.96 10.3 26.38 10C26.38 10 26.38 10 26.38 10.03C26.38 12.11 27.86 13.85 29.82 14.24C29.46 14.34 29.08 14.39 28.69 14.39C28.42 14.39 28.15 14.36 27.89 14.31C28.43 16 30 17.26 31.89 17.29C30.43 18.45 28.58 19.13 26.56 19.13C26.22 19.13 25.88 19.11 25.54 19.07C27.44 20.29 29.7 21 32.12 21C40 21 44.33 14.46 44.33 8.79C44.33 8.6 44.33 8.42 44.32 8.23C45.16 7.63 45.88 6.87 46.46 6Z" />
<path d="M12 2C10.6868 2 9.38642 2.25866 8.17317 2.7612C6.95991 3.26375 5.85752 4.00035 4.92893 4.92893C3.05357 6.8043 2 9.34784 2 12C2 16.42 4.87 20.17 8.84 21.5C9.34 21.58 9.5 21.27 9.5 21C9.5 20.77 9.5 20.14 9.5 19.31C6.73 19.91 6.14 17.97 6.14 17.97C5.68 16.81 5.03 16.5 5.03 16.5C4.12 15.88 5.1 15.9 5.1 15.9C6.1 15.97 6.63 16.93 6.63 16.93C7.5 18.45 8.97 18 9.54 17.76C9.63 17.11 9.89 16.67 10.17 16.42C7.95 16.17 5.62 15.31 5.62 11.5C5.62 10.39 6 9.5 6.65 8.79C6.55 8.54 6.2 7.5 6.75 6.15C6.75 6.15 7.59 5.88 9.5 7.17C10.29 6.95 11.15 6.84 12 6.84C12.85 6.84 13.71 6.95 14.5 7.17C16.41 5.88 17.25 6.15 17.25 6.15C17.8 7.5 17.45 8.54 17.35 8.79C18 9.5 18.38 10.39 18.38 11.5C18.38 15.32 16.04 16.16 13.81 16.41C14.17 16.72 14.5 17.33 14.5 18.26C14.5 19.6 14.5 20.68 14.5 21C14.5 21.27 14.66 21.59 15.17 21.5C19.14 20.16 22 16.42 22 12C22 10.6868 21.7413 9.38642 21.2388 8.17317C20.7363 6.95991 19.9997 5.85752 19.0711 4.92893C18.1425 4.00035 17.0401 3.26375 15.8268 2.7612C14.6136 2.25866 13.3132 2 12 2V2Z" />
</svg>
