<svg width="32" height="32" viewBox="0 0 32 32" fill="none" xmlns="http://www.w3.org/2000/svg">
<path d="M29.9468 8.00001C28.9201 8.46668 27.8135 8.77334 26.6668 8.92001C27.8401 8.21334 28.7468 7.09334 29.1735 5.74668C28.0668 6.41334 26.8401 6.88001 25.5468 7.14668C24.4935 6.00001 23.0135 5.33334 21.3335 5.33334C18.2001 5.33334 15.6401 7.89334 15.6401 11.0533C15.6401 11.5067 15.6935 11.9467 15.7868 12.36C11.0401 12.12 6.81347 9.84001 4.00013 6.38668C3.5068 7.22668 3.2268 8.21334 3.2268 9.25334C3.2268 11.24 4.2268 13 5.77347 14C4.8268 14 3.9468 13.7333 3.17347 13.3333C3.17347 13.3333 3.17347 13.3333 3.17347 13.3733C3.17347 16.1467 5.1468 18.4667 7.76013 18.9867C7.28013 19.12 6.77347 19.1867 6.25347 19.1867C5.89347 19.1867 5.53347 19.1467 5.1868 19.08C5.9068 21.3333 8.00013 23.0133 10.5201 23.0533C8.57347 24.6 6.1068 25.5067 3.41347 25.5067C2.96013 25.5067 2.5068 25.48 2.05347 25.4267C4.5868 27.0533 7.60013 28 10.8268 28C21.3335 28 27.1068 19.28 27.1068 11.72C27.1068 11.4667 27.1068 11.2267 27.0935 10.9733C28.2135 10.1733 29.1735 9.16001 29.9468 8.00001Z" fill="#D45D79"/>
</svg>
