<svg width="32" height="32" viewBox="0 0 32 32" fill="none" xmlns="http://www.w3.org/2000/svg">
<path d="M28 28H22.6667V19C22.6667 17.5867 21.08 16.4133 19.6667 16.4133C18.2533 16.4133 17.3333 17.5867 17.3333 19V28H12V12H17.3333V14.6667C18.2133 13.24 20.48 12.32 22 12.32C25.3333 12.32 28 15.04 28 18.3333V28ZM9.33333 28H4V12H9.33333V28ZM6.66667 4C7.37391 4 8.05219 4.28095 8.55229 4.78105C9.05238 5.28115 9.33333 5.95942 9.33333 6.66667C9.33333 7.37391 9.05238 8.05219 8.55229 8.55229C8.05219 9.05238 7.37391 9.33333 6.66667 9.33333C5.95942 9.33333 5.28115 9.05238 4.78105 8.55229C4.28095 8.05219 4 7.37391 4 6.66667C4 5.95942 4.28095 5.28115 4.78105 4.78105C5.28115 4.28095 5.95942 4 6.66667 4Z" fill="#D45D79"/>
</svg>
